<?xml version="1.0" encoding="utf-8"?>
<!-- Generator: Adobe Illustrator 27.3.1, SVG Export Plug-In . SVG Version: 6.00 Build 0)  -->
<svg version="1.1" id="Layer_1" xmlns="http://www.w3.org/2000/svg" xmlns:xlink="http://www.w3.org/1999/xlink" x="0px" y="0px"
	 viewBox="0 0 98.9 22.4" style="enable-background:new 0 0 98.9 22.4;" xml:space="preserve">
<style type="text/css">
	.st0{fill:#F5F5F5;}
	.st1{fill:#FF5C00;}
	.st2{fill:#FFFFFF;}
</style>
<g>
	<g>
		<path class="st0" d="M0.8,14.5C1,14.3,1.1,14.2,1.3,14C4.9,11.8,23.8,0.5,52.6,0.5c28.3,0,42.3,6.6,44.9,7.9
			c0.4,0.2,0.7,0.5,0.8,0.9c-2.9-0.7-14.7-2.7-46.9-2.7C19.4,6.6,4.7,12.6,0.8,14.5z"/>
		<path class="st1" d="M52.6,1c25.8,0,39.7,5.5,43.8,7.5c-5-0.9-17.7-2.4-45-2.4C28,6.1,13.8,9.3,6.3,11.8C14.1,7.7,30.4,1,52.6,1
			 M52.6,0C24.4,0,5.6,10.7,1.1,13.6C0.4,14,0,14.7,0,15.5c0,0,13.7-8.4,51.4-8.4S98.9,10,98.9,10c0-0.8-0.5-1.6-1.2-2
			C93.7,5.9,79.5,0,52.6,0L52.6,0z"/>
	</g>
	<g>
		<path class="st2" d="M0.5,15.8c2-1.1,16.4-8.2,50.9-8.2c33.3,0,44.9,2.3,47,2.8v10c-7.2-1.2-20.5-2.5-43.6-2.5
			c-27.5,0-44.6,2.1-54.3,3.9V15.8z"/>
		<path class="st1" d="M51.4,8.1c31.6,0,43.6,2.1,46.5,2.7v9c-7.3-1.1-20.6-2.4-43.1-2.4c-26.9,0-44,2-53.8,3.8v-5.1
			C3.7,14.7,18.3,8.1,51.4,8.1 M51.4,7.1C13.7,7.1,0,15.5,0,15.5v6.9c8.9-1.7,26.3-4,54.8-4c22.9,0,36.4,1.3,44.1,2.6V10
			C98.9,10,89.1,7.1,51.4,7.1L51.4,7.1z"/>
	</g>
</g>
</svg>
