<?xml version="1.0" encoding="utf-8"?>
<!-- Generator: Adobe Illustrator 27.3.1, SVG Export Plug-In . SVG Version: 6.00 Build 0)  -->
<svg version="1.1" id="Layer_1" xmlns="http://www.w3.org/2000/svg" xmlns:xlink="http://www.w3.org/1999/xlink" x="0px" y="0px"
	 viewBox="0 0 200 90.8" style="enable-background:new 0 0 200 90.8;" xml:space="preserve">
<style type="text/css">
	.st0{fill:#EDEDED;}
	.st1{fill:#FF5C00;}
	.st2{fill:#F5F5F5;}
	.st3{opacity:0.5;}
</style>
<g>
	<g>
		<g>
			<path class="st0" d="M199.4,90.2c-4.8-0.5-33.7-3.1-50-3.1c-16.4,0-43.6,2-47.9,2.4c0.4-5.3,3.2-44.6,4.7-51.3
				C108,30.9,114,17,123,10.5c1.4-1,2.6-1.9,3.8-2.8c6.5-4.8,9.7-7.2,18.8-7.2c9.8,0,24.6,5.5,34.2,21.2
				C188.2,35.5,198.1,84,199.4,90.2z"/>
			<path class="st1" d="M145.5,1c9.6,0,24.3,5.5,33.7,20.9c8.2,13.4,17.8,59.4,19.5,67.8c-6.4-0.6-33.7-3.1-49.4-3.1
				c-15.8,0-41.6,1.9-47.3,2.3c0.5-7.1,3.2-44.2,4.7-50.7c1.7-7.2,7.6-20.9,16.5-27.3c1.4-1,2.6-1.9,3.8-2.8
				C133.4,3.4,136.6,1,145.5,1 M145.5,0c-10.8,0-13.6,3.5-22.8,10.1c-9.2,6.6-15.2,20.6-16.9,27.9c-1.7,7.3-4.8,52-4.8,52
				s30.5-2.4,48.4-2.4s50.6,3.2,50.6,3.2s-10.7-54.4-19.9-69.4S156.3,0,145.5,0L145.5,0z"/>
		</g>
		<g>
			<path class="st2" d="M199.4,90.2c-4.8-0.5-33.7-3.1-50-3.1c-16.4,0-43.6,2-47.9,2.4l0.4-5.8c3.3-0.5,27.4-4.3,48.5-4.3
				c21.2,0,44.4,3.8,47.5,4.3C198.7,86.8,199.1,89.2,199.4,90.2z"/>
			<path class="st1" d="M150.5,79.8c20.5,0,43,3.6,47.1,4.3c0.5,2.5,0.9,4.4,1.2,5.6c-6.4-0.6-33.7-3.1-49.3-3.1
				c-15.8,0-41.6,1.9-47.3,2.3c0.1-1,0.2-2.7,0.4-4.9C106.9,83.3,130.1,79.8,150.5,79.8 M150.5,78.8c-22.9,0-49,4.4-49,4.4
				c-0.3,4.1-0.5,6.8-0.5,6.8s30.5-2.4,48.4-2.4s50.6,3.2,50.6,3.2s-0.6-2.9-1.6-7.6C198.4,83.2,173.4,78.8,150.5,78.8L150.5,78.8z"
				/>
		</g>
	</g>
	<g class="st3">
		<g>
			<path class="st1" d="M146.8,72.3c0.2-1.4,0.8-2.7,1.8-3.6l3.2-2.6c0.9-0.6,2-1.7,1.9-3.3c0-0.2,0-0.4,0-0.5
				c-0.1-1.2-1.1-2.1-2.3-2.1c-0.1,0-0.2,0-0.2,0c0,0,0,0,0,0c-0.9,0-2.3,0.4-2.5,2.7h-1.7c0.1-2.7,1.5-4,4.2-4l0.2,0
				c1.1,0,2.1,0.4,3,1.1c0.8,0.7,1.3,1.8,1.2,2.9c0,1.1-0.4,2.2-1.2,3c-0.8,0.8-1.6,1.5-2.6,2c-0.9,0.5-1.7,1.2-2.3,2l-0.6,0.8h6.7
				v1.6H146.8z"/>
			<path class="st1" d="M151.3,59.4c1,0,1.9,0.3,2.6,0.9c0.7,0.6,1.1,1.6,1.1,2.6c0,1-0.4,1.9-1,2.6c-0.7,0.8-1.6,1.4-2.5,1.9
				c-1,0.6-1.8,1.3-2.4,2.2l-1.1,1.6h1.9h5.2v0.6h-7.7c0.2-1,0.8-2,1.5-2.8l3.1-2.5c1-0.7,2.2-1.9,2.1-3.7c0-0.2,0-0.4,0-0.6
				c-0.2-1.4-1.4-2.5-2.8-2.5c-0.1,0-0.2,0-0.2,0c-0.9,0-2.6,0.3-3,2.7h-0.7c0.3-2.1,1.4-3,3.7-3C151.2,59.4,151.2,59.4,151.3,59.4
				 M151.3,58.4c-0.1,0-0.1,0-0.2,0c-3.1,0-4.7,1.7-4.7,5h2.7c0-1.8,0.7-2.7,2.1-2.7c0.1,0,0.1,0,0.2,0c0.9,0,1.7,0.7,1.8,1.6
				c0,0.2,0,0.3,0,0.5c0.1,1.1-0.5,2-1.7,2.9l-3.2,2.6c-1.2,1.2-1.9,2.8-2,4.5h9.8v-2.6h-6.2c0.6-0.8,1.3-1.4,2.1-1.9
				c1-0.6,1.9-1.3,2.7-2.1c0.8-0.9,1.3-2.1,1.3-3.3c0-1.3-0.5-2.5-1.4-3.3C153.7,58.8,152.5,58.4,151.3,58.4L151.3,58.4z"/>
		</g>
		<g>
			<path class="st1" d="M140.2,72.4l-0.3-3.3c-0.1-1.1-0.7-2.4-2.9-2.4h-3.5v5.7h-2V59.1h6.8c0.1,0,0.2,0,0.3,0
				c0.9,0,1.9,0.3,2.6,0.9c0.8,0.6,1.2,1.6,1.1,2.6c0.1,1.4-0.6,2.6-1.9,3l-1.1,0.4l1,0.6c1.1,0.6,1.7,1.8,1.5,3l0,0.7
				c-0.1,0.3-0.1,0.6-0.1,0.9c0,0.3,0,0.9,0.3,1.4H140.2z M133.5,65.3h4c2.4,0,2.8-1.5,2.8-2.4c0-1.1-0.5-2.4-2.6-2.4h-4.2V65.3z"/>
			<path class="st1" d="M138.6,59.6c0.8,0,1.6,0.3,2.3,0.8c0.6,0.5,1,1.3,0.9,2.2l0,0.1l0,0.1c0.1,1.1-0.5,2-1.5,2.4l-0.6,0.2
				c1-0.7,1.2-1.8,1.2-2.4c0-1.8-1.1-2.9-3.1-2.9H134h-1v1v3.8v1h1h3.5c0.2,0,0.5,0,0.7,0l0,0l2,1.1c0.9,0.5,1.4,1.5,1.3,2.5l0,0.1
				v0.1v0.6c-0.1,0.3-0.1,0.6-0.1,0.9c0,0.3,0,0.6,0.1,0.9h-0.8c0-0.3-0.1-0.7-0.1-1c0-0.6-0.1-1.2-0.1-1.9
				c-0.1-1.1-0.6-2.8-3.4-2.8h-3h-1v1v4.7h-1V59.6h6.3h0l0,0C138.4,59.6,138.5,59.6,138.6,59.6L138.6,59.6 M138.6,58.6
				c-0.1,0-0.2,0-0.3,0H131v14.3h3v-5.7h3c1.5,0,2.3,0.6,2.4,1.9c0.1,1.3,0.2,2.5,0.3,3.8h3.3v-0.4c-0.5-0.2-0.7-0.7-0.7-1.5
				c0-0.3,0-0.5,0.1-0.8v-0.7c0.2-1.4-0.6-2.8-1.8-3.5c1.4-0.5,2.3-1.9,2.2-3.4c0.1-1.2-0.4-2.3-1.3-3
				C140.7,58.9,139.6,58.6,138.6,58.6L138.6,58.6z M134,64.8V61h3.7c1.4,0,2.1,0.6,2.1,1.9s-0.8,1.9-2.3,1.9H134L134,64.8z"/>
		</g>
	</g>
</g>
<g>
	<g>
		<g>
			<path class="st0" d="M0.7,90.2C2,84,11.9,35.5,20.4,21.7C30,6,44.8,0.5,54.6,0.5c9,0,12.2,2.4,18.5,7.2c1.2,0.9,2.4,1.8,3.9,2.9
				c9,6.4,15,20.4,16.7,27.6c1.6,6.7,4.4,46.1,4.7,51.3c-4.3-0.3-31.4-2.4-47.8-2.4C34.4,87.1,5.5,89.8,0.7,90.2z"/>
			<path class="st1" d="M54.6,1c8.8,0,11.9,2.4,18.2,7.1c1.1,0.9,2.4,1.8,3.9,2.9c8.9,6.4,14.8,20.1,16.5,27.3
				c1.5,6.5,4.2,43.6,4.7,50.7c-5.7-0.4-31.5-2.3-47.2-2.3c-15.7,0-43,2.5-49.4,3.1C3,81.3,12.6,35.3,20.9,21.9
				C30.3,6.5,45,1,54.6,1 M54.6,0C43.8,0,29.2,6.4,20,21.4S0.1,90.8,0.1,90.8s32.7-3.2,50.6-3.2S99,90,99,90s-3.1-44.7-4.8-52
				c-1.7-7.3-7.7-21.3-16.9-27.9C68.1,3.5,65.4,0,54.6,0L54.6,0z"/>
		</g>
		<g>
			<path class="st2" d="M0.6,90.2c0.2-1.1,0.7-3.4,1.4-6.6c3-0.5,26.3-4.3,47.5-4.3c21.1,0,45.2,3.8,48.5,4.3
				c0.3,2.8,0.4,4.9,0.4,5.8c-4.3-0.3-31.5-2.4-47.9-2.4C34.3,87.1,5.4,89.8,0.6,90.2z"/>
			<path class="st1" d="M49.5,79.8c20.4,0,43.6,3.6,48.1,4.3c0.2,2.1,0.3,3.8,0.4,4.9c-5.7-0.4-31.6-2.3-47.3-2.3
				c-15.7,0-43,2.5-49.3,3.1c0.2-1.2,0.7-3.1,1.2-5.6C6.5,83.4,29,79.8,49.5,79.8 M49.5,78.8c-22.9,0-47.9,4.4-47.9,4.4
				c-1,4.7-1.6,7.6-1.6,7.6s32.7-3.2,50.6-3.2S99,90,99,90s-0.1-2.7-0.5-6.8C98.5,83.2,72.4,78.8,49.5,78.8L49.5,78.8z"/>
		</g>
	</g>
	<g class="st3">
		<g>
			<path class="st1" d="M59.9,72.3c0.2-1.4,0.8-2.7,1.8-3.6l3.2-2.6c1.1-0.6,1.8-1.9,1.8-3.3c0-0.1,0-0.3,0-0.5
				c-0.1-1.2-1.1-2.1-2.3-2.1c-0.1,0-0.2,0-0.2,0c0,0,0,0,0,0c-0.9,0-2.3,0.4-2.5,2.7h-1.7c0.1-2.7,1.5-4,4.2-4l0.2,0
				c1.1,0,2.1,0.4,3,1.1c0.8,0.7,1.3,1.8,1.2,2.9c0,1.1-0.4,2.2-1.2,3c-0.8,0.8-1.6,1.5-2.6,2c-0.9,0.5-1.7,1.2-2.3,2l-0.6,0.8h6.7
				v1.6H59.9z"/>
			<path class="st1" d="M64.3,59.4c1,0,1.9,0.3,2.6,0.9c0.7,0.6,1.1,1.6,1.1,2.6c0,1-0.4,1.9-1,2.6c-0.7,0.8-1.6,1.4-2.5,1.9
				c-1,0.6-1.8,1.3-2.4,2.2L61,71.2h1.9h5.2v0.6h-7.6c0.2-1,0.8-2,1.5-2.8l3.1-2.5c1.3-0.8,2.1-2.2,2-3.7c0-0.2,0-0.4,0-0.6
				c-0.2-1.4-1.4-2.5-2.8-2.5c-0.1,0-0.2,0-0.2,0c-0.9,0-2.6,0.3-3,2.7h-0.7c0.3-2.1,1.4-3,3.7-3C64.2,59.4,64.2,59.4,64.3,59.4
				 M64.3,58.4c-0.1,0-0.1,0-0.2,0c-3.1,0-4.7,1.7-4.7,5h2.7c0-1.8,0.7-2.7,2.1-2.7c0.1,0,0.1,0,0.2,0c0.9,0,1.7,0.7,1.8,1.6
				c0,0.2,0,0.3,0,0.5c0.1,1.2-0.6,2.3-1.6,2.9l-3.2,2.6c-1.2,1.2-1.9,2.8-2,4.5h9.7v-2.6h-6.2c0.6-0.8,1.3-1.4,2.1-1.9
				c1-0.6,1.9-1.3,2.7-2.1c0.8-0.9,1.3-2.1,1.3-3.3c0-1.3-0.5-2.5-1.4-3.3C66.7,58.8,65.5,58.4,64.3,58.4L64.3,58.4z"/>
		</g>
		<g>
			<polygon class="st1" points="46.5,72.3 46.5,59 48.5,59 48.5,70.7 55.6,70.7 55.6,72.3 			"/>
			<path class="st1" d="M48,59.5v10.7v1h1h6.1v0.6H47V59.5H48 M49,58.5h-3v14.3h10.1v-2.6H49V58.5L49,58.5z"/>
		</g>
	</g>
</g>
</svg>
