<?xml version="1.0" encoding="utf-8"?>
<!-- Generator: Adobe Illustrator 27.3.1, SVG Export Plug-In . SVG Version: 6.00 Build 0)  -->
<svg version="1.1" id="Layer_1" xmlns="http://www.w3.org/2000/svg" xmlns:xlink="http://www.w3.org/1999/xlink" x="0px" y="0px"
	 viewBox="0 0 806.3 598.7" style="enable-background:new 0 0 806.3 598.7;" xml:space="preserve">
<style type="text/css">
	.st0{fill:#FF5C00;}
	.st1{fill:#FFFFFF;}
</style>
<g>
	<path class="st0" d="M805.9,508.6L805.9,508.6v-2.4c-0.1-12.4-0.8-67.1-4.6-87.6c-2.9-15.5-17.7-102.5-32-144.6
		c-9.4-27.7-13.1-53-17-64.9c-12-35.7-33-65.7-33-65.7s-9.5-13.1-10.1-16.3s-4.7-8.6-4.7-8.6c-2.4-0.7-4.9-1.3-7.4-1.7l0,0v-6.9
		c0-0.8-0.4-1.5-1.1-1.9c-4.5-2.9-23.4-13.6-51.5-13.6c-26.9,0-41.1,5.9-45.1,8c-0.7,0.4-1.2,1.2-1.2,2v11l0,0
		c-7.4,1.2-9.6,2.4-9.6,2.4c-1.7,1.9-3.7,3.5-5.9,4.8c-3.5,1.8-11.7,1.7-11.7,1.7h-33.4c-0.3-0.1-0.7,0.1-0.9,0.3
		c-0.3,0.6-0.5,1.3-0.6,2h-1.6c-1-2.3-3.2-3.9-5.7-4.1H277.1c-2.5,0.2-4.7,1.8-5.7,4.1h-1.6c-0.1-0.7-0.3-1.4-0.6-2
		c-0.2-0.2-0.6-0.3-0.9-0.3h-33.4c0,0-8.2,0.2-11.7-1.7c-2.2-1.2-4.2-2.8-5.9-4.8c0,0-2.1-1.2-9.6-2.4l0,0v-11c0-0.8-0.5-1.6-1.2-2
		c-4-2-18.2-8-45.1-8c-28.2,0-47,10.7-51.5,13.6c-0.7,0.4-1.1,1.1-1.1,1.9v6.9l0,0c-5.1,1-7.4,1.7-7.4,1.7s-4.1,5.3-4.7,8.6
		c-0.6,3.3-10.1,16.3-10.1,16.3s-21,30-33,65.7c-4,11.9-7.7,37.2-17,64.9c-14.3,42.1-29.1,129.1-32,144.6
		c-3.8,20.5-4.5,75.2-4.6,87.6v2.4l0,0v0.2l0,0c0.2,2.5,3.6,35.7,20.8,59.5l0,0c0.5,0.7,1.1,1.4,1.6,2.1c0,0.1,0,0.1,0.1,0.1
		c0.5,0.7,1.1,1.4,1.6,2l0,0c0.6,0.7,1.1,1.3,1.7,1.9l0.2,0.2c0.6,0.6,1.1,1.2,1.7,1.8l0.1,0.1c0.6,0.6,1.2,1.2,1.8,1.7l0.3,0.3
		c0.6,0.5,1.2,1,1.8,1.6l0.1,0.1c0.6,0.5,1.3,1,1.9,1.5c0.2,0.1,0.3,0.2,0.5,0.3c0.6,0.5,1.3,1,2,1.4c31.7,21.5,56.7,14,56.7,14H93
		c0.1,0,0.1,0,0.2-0.1h0.1c0.1,0,0.3-0.1,0.4-0.1l0,0c0.2,0,0.3-0.1,0.5-0.2h0.1c0.2-0.1,0.5-0.1,0.7-0.2c0.1,0,0.1,0,0.2-0.1
		c0.3-0.1,0.5-0.2,0.8-0.3h0.1l0.9-0.3c0.1,0,0.1,0,0.2-0.1c0.4-0.1,0.7-0.2,1.1-0.4c0.1,0,0.2-0.1,0.3-0.1c0.4-0.1,0.8-0.3,1.2-0.5
		c0.1,0,0.1-0.1,0.2-0.1c0.4-0.2,0.8-0.3,1.2-0.5c0.1,0,0.1,0,0.2-0.1c0.4-0.2,0.9-0.4,1.4-0.6c0.1,0,0.2-0.1,0.3-0.1
		c0.5-0.2,1-0.4,1.5-0.7c0.1,0,0.2-0.1,0.3-0.1c0.5-0.2,1-0.4,1.5-0.7c0.1,0,0.1,0,0.2-0.1c0.5-0.3,1.1-0.5,1.7-0.8
		c0.1-0.1,0.3-0.1,0.4-0.2c0.6-0.3,1.1-0.6,1.7-0.9c0.1-0.1,0.2-0.1,0.3-0.2c0.6-0.3,1.1-0.6,1.7-0.9c0.1,0,0.1-0.1,0.2-0.1
		c0.6-0.3,1.2-0.7,1.9-1.1c0.1-0.1,0.2-0.2,0.4-0.2c0.6-0.4,1.3-0.7,1.9-1.1c0.1-0.1,0.2-0.2,0.4-0.2c0.7-0.4,1.3-0.8,2-1.2
		c0.1,0,0.1,0,0.1-0.1l0,0c12.2-7.9,22.9-17.9,31.5-29.6c0.5-0.7,1-1.4,1.5-2.2c0.1-0.2,0.3-0.4,0.4-0.6c0.5-0.7,1-1.4,1.4-2.2
		c0-0.1,0.1-0.1,0.1-0.2c0.5-0.8,1.1-1.7,1.6-2.5c0.1-0.2,0.2-0.3,0.3-0.5c0.5-0.8,1-1.7,1.5-2.5l0.1-0.1c0.6-1,1.1-1.9,1.7-2.9
		c0.1-0.1,0.1-0.2,0.2-0.3c0.5-1,1.1-2,1.7-3l0,0l1.8-3.3V535c21.9-41.6,44.3-108.8,44.3-108.8c1.6-2.1,3.5-3.8,5.7-5.3
		c1.9-1.3,4-2.2,6.3-2.6h1.9c29.7,29,77.1,29.1,106.9,0.1h36c0,2.8,1.8,2.2,4.6,2.2h67.9c2.8,0,5.5,0.6,5.5-2.2h35.9
		c29.8,29,77.2,28.9,106.9-0.1h1.9c2.3,0.4,4.4,1.3,6.3,2.6c2.2,1.5,4.1,3.2,5.7,5.3c0,0,22.5,67.2,44.3,108.8v0.1l1.8,3.3l0,0
		c0.6,1,1.1,2,1.7,3c0.1,0.1,0.1,0.2,0.2,0.3c0.6,1,1.1,2,1.7,2.9l0.1,0.1c0.5,0.9,1,1.7,1.5,2.5c0.1,0.2,0.2,0.3,0.3,0.5
		c0.5,0.9,1.1,1.7,1.6,2.5c0,0.1,0.1,0.1,0.1,0.2c0.5,0.7,1,1.5,1.4,2.2c0.1,0.2,0.3,0.4,0.4,0.6c0.5,0.7,1,1.5,1.5,2.2
		c8.6,11.7,19.3,21.8,31.5,29.6l0,0c0.1,0,0.1,0,0.1,0.1c0.7,0.4,1.3,0.8,2,1.2c0.1,0.1,0.2,0.2,0.4,0.2c0.6,0.4,1.2,0.8,1.9,1.1
		c0.1,0.1,0.2,0.2,0.4,0.2c0.6,0.4,1.3,0.7,1.9,1.1c0.1,0,0.1,0.1,0.2,0.1c0.6,0.3,1.2,0.6,1.7,0.9c0.1,0.1,0.2,0.1,0.3,0.2
		c0.6,0.3,1.2,0.6,1.7,0.9c0.1,0.1,0.3,0.1,0.4,0.2c0.6,0.3,1.1,0.5,1.7,0.8c0.1,0,0.1,0,0.2,0.1c0.5,0.2,1,0.5,1.5,0.7
		c0.1,0,0.2,0.1,0.3,0.1c0.5,0.2,1,0.4,1.5,0.7c0.1,0,0.2,0.1,0.3,0.1c0.5,0.2,0.9,0.4,1.4,0.6c0.1,0,0.1,0,0.2,0.1
		c0.4,0.2,0.8,0.3,1.2,0.5c0.1,0,0.1,0.1,0.2,0.1c0.4,0.2,0.8,0.3,1.2,0.5c0.1,0,0.2,0.1,0.3,0.1c0.4,0.1,0.7,0.3,1.1,0.4
		c0.1,0,0.1,0,0.2,0.1l0.9,0.3h0.1c0.3,0.1,0.5,0.2,0.8,0.3c0.1,0,0.1,0,0.2,0.1s0.5,0.1,0.7,0.2h0.1c0.2,0.1,0.4,0.1,0.5,0.2l0,0
		c0.2,0,0.3,0.1,0.4,0.1h0.1c0.1,0,0.1,0,0.2,0.1h0.1c0,0,25,7.5,56.7-14c0.7-0.5,1.3-0.9,2-1.4c0.2-0.1,0.3-0.2,0.5-0.3
		c0.6-0.5,1.3-1,1.9-1.5l0.1-0.1c0.6-0.5,1.2-1,1.8-1.6l0.3-0.3c0.6-0.6,1.2-1.1,1.8-1.7l0.1-0.1c0.6-0.6,1.1-1.2,1.7-1.8l0.2-0.2
		c0.6-0.6,1.1-1.3,1.7-1.9l0,0c0.6-0.7,1.1-1.3,1.6-2c0-0.1,0-0.1,0.1-0.1c0.5-0.7,1.1-1.4,1.6-2.1l0,0c17.2-23.8,20.6-57,20.8-59.5
		l0,0v-0.1C806.3,508.7,805.9,508.7,805.9,508.6z"/>
	<path class="st0" d="M608.7,89.3c0.5,0,1.1-0.1,1.6-0.1c4.4-0.3,9.6-0.6,15-0.9c1.3-0.1,2.7-0.1,4-0.2l8-0.3c1.3,0,2.6-0.1,3.8-0.1
		s2.4,0,3.6-0.1h1.7c17.9,0,50.6,3.2,50.6,3.2l0,0c0-0.1,0-0.2-0.1-0.3v-0.3l0,0c0-0.1,0-0.2-0.1-0.3v-0.3c0-0.3-0.1-0.5-0.2-0.8
		v-0.1c0-0.1-0.1-0.3-0.1-0.4v-0.1c-2.3-11-11.4-53.8-19.4-66.8C668,6.4,653.4,0,642.5,0s-13.6,3.4-22.7,10.1S604.5,30.7,602.9,38
		c-1.2,5.5-3.3,32.4-4.3,45.2l0,0V86l0,0c0,0.6-0.1,1.1-0.1,1.6v0.5l0,0c-0.1,0.6-0.1,1.2-0.1,1.8V90c0,0,1.9-0.1,5-0.4
		C604.7,89.5,606.6,89.4,608.7,89.3z"/>
	<path class="st0" d="M207.7,90L207.7,90c0-0.3-0.1-0.9-0.1-1.9l0,0v-0.5c0-0.5-0.1-1-0.1-1.6l0,0v-2.7c-1-12.8-3.1-39.7-4.3-45.2
		c-1.6-7.3-7.7-21.3-16.9-27.9S174.1,0,163.3,0s-25.4,6.4-34.6,21.4c-8,13-17.1,55.8-19.4,66.8v0.1c0,0.2-0.1,0.3-0.1,0.4v0.1
		c-0.1,0.3-0.1,0.6-0.2,0.8v0.3c0,0.1,0,0.2-0.1,0.3l0,0v0.3c0,0.1,0,0.2-0.1,0.3l0,0c0,0,32.7-3.2,50.6-3.2S207.7,90,207.7,90z"/>
</g>
<g>
	<path class="st1" d="M261.7,278.2c1.7,0.8,3.1,2.1,4.2,4c1.1,1.9,1.6,4,1.6,6.2c0,3.1-1.1,5.7-3.2,7.7s-4.8,3-8.1,3h-21.5v-39.4
		h20.2c3,0,5.6,1,7.7,2.9c2.1,1.9,3.1,4.4,3.1,7.3c0,1.7-0.4,3.3-1.1,4.8C263.9,276.3,262.9,277.4,261.7,278.2z M252.1,269.5h-6.8
		v4.8h6.8c0.7,0,1.3-0.2,1.7-0.7c0.5-0.5,0.7-1,0.7-1.7c0-0.7-0.2-1.3-0.7-1.7C253.4,269.8,252.8,269.5,252.1,269.5z M253.4,289.3
		c0.8,0,1.5-0.3,2-0.8c0.6-0.6,0.8-1.2,0.8-2c0-0.8-0.3-1.5-0.8-2c-0.6-0.5-1.2-0.8-2-0.8h-8.1v5.7H253.4z"/>
	<path class="st1" d="M297,299.1l-1.8-5.4h-14l-1.8,5.4h-11.7l14.2-39.4h12.9l14.2,39.4H297z M284.4,283.6h7.6l-3.8-11.8
		L284.4,283.6z"/>
	<path class="st1" d="M328.8,275.6h19.6v3.8c0,2.9-0.5,5.6-1.5,8.1s-2.4,4.7-4.1,6.5c-1.7,1.8-3.9,3.2-6.4,4.2c-2.5,1-5.2,1.5-8,1.5
		c-2.9,0-5.7-0.5-8.2-1.6c-2.6-1.1-4.8-2.5-6.6-4.3s-3.3-4-4.3-6.5c-1.1-2.5-1.6-5.2-1.6-8.1c0-3.8,0.9-7.3,2.7-10.4
		c1.8-3.1,4.3-5.6,7.5-7.3c3.2-1.8,6.8-2.7,10.7-2.7c3.3,0,6.4,0.6,9.3,1.9c2.9,1.3,5.2,3,6.9,5.3l-8.2,6.6
		c-0.9-1.1-2.1-1.9-3.4-2.5c-1.4-0.6-2.8-0.9-4.4-0.9c-2.8,0-5.2,1-7.1,2.9c-1.9,1.9-2.9,4.3-2.9,7.1c0,2.9,0.9,5.2,2.8,7.2
		c1.9,1.9,4.3,2.9,7.1,2.9c1.7,0,3.2-0.4,4.5-1.1c1.3-0.7,2.4-1.7,3.1-3h-7.6V275.6z M335.9,255c-2,1.9-4.4,2.8-7.3,2.8
		s-5.4-0.9-7.3-2.8c-2-1.9-2.9-4.2-2.9-6.9h7.9c0,0.7,0.2,1.3,0.7,1.8c0.5,0.5,1,0.7,1.7,0.7s1.3-0.2,1.7-0.7
		c0.5-0.5,0.7-1.1,0.7-1.8h7.9C338.9,250.8,337.9,253.1,335.9,255z"/>
	<path class="st1" d="M363.7,288.8h14.9v10.3h-25.8v-39.4h10.9V288.8z"/>
	<path class="st1" d="M382.8,299.1v-39.4h10.9v39.4H382.8z"/>
	<path class="st1" d="M427.6,259.7c3.8,0,7.3,0.9,10.4,2.6c3.1,1.7,5.5,4.1,7.3,7.1c1.8,3,2.6,6.4,2.6,10.1c0,3.7-0.9,7.1-2.6,10.1
		c-1.8,3-4.2,5.4-7.3,7.1c-3.1,1.7-6.5,2.6-10.4,2.6h-15.7v-39.4H427.6z M427.4,288.8c2.7,0,4.9-0.9,6.7-2.7c1.8-1.8,2.7-4,2.7-6.7
		c0-2.7-0.9-4.9-2.7-6.7c-1.8-1.8-4-2.7-6.7-2.7h-4.6v18.8H427.4z"/>
	<path class="st1" d="M463.5,288.8h16.6v10.3h-27.5v-39.4h27.2V270h-16.3v4.2H478v10.3h-14.5V288.8z"/>
	<path class="st1" d="M504.4,275.6H524v3.8c0,2.9-0.5,5.6-1.5,8.1s-2.4,4.7-4.1,6.5c-1.7,1.8-3.9,3.2-6.4,4.2c-2.5,1-5.2,1.5-8,1.5
		c-2.9,0-5.7-0.5-8.2-1.6c-2.6-1.1-4.8-2.5-6.6-4.3c-1.8-1.8-3.3-4-4.3-6.5c-1.1-2.5-1.6-5.2-1.6-8.1c0-3.8,0.9-7.3,2.7-10.4
		c1.8-3.1,4.3-5.6,7.5-7.3c3.2-1.8,6.8-2.7,10.7-2.7c3.3,0,6.4,0.6,9.3,1.9c2.9,1.3,5.2,3,6.9,5.3l-8.2,6.6
		c-0.9-1.1-2.1-1.9-3.4-2.5c-1.4-0.6-2.8-0.9-4.4-0.9c-2.8,0-5.2,1-7.1,2.9c-1.9,1.9-2.9,4.3-2.9,7.1c0,2.9,0.9,5.2,2.8,7.2
		c1.9,1.9,4.3,2.9,7.1,2.9c1.7,0,3.2-0.4,4.5-1.1s2.4-1.7,3.1-3h-7.6V275.6z M511.5,255c-2,1.9-4.4,2.8-7.3,2.8
		c-2.9,0-5.4-0.9-7.3-2.8c-2-1.9-2.9-4.2-2.9-6.9h7.9c0,0.7,0.2,1.3,0.7,1.8c0.5,0.5,1,0.7,1.7,0.7c0.7,0,1.3-0.2,1.7-0.7
		c0.5-0.5,0.7-1.1,0.7-1.8h7.9C514.4,250.8,513.5,253.1,511.5,255z"/>
	<path class="st1" d="M538,256.1c-1.1,1.1-2.5,1.6-4.2,1.6c-1.7,0-3-0.5-4.2-1.6c-1.1-1.1-1.7-2.5-1.7-4.1c0-1.7,0.6-3,1.7-4.1
		c1.1-1.1,2.5-1.6,4.2-1.6c1.7,0,3.1,0.5,4.2,1.6s1.7,2.5,1.7,4.1C539.7,253.6,539.1,255,538,256.1z M528.4,299.1v-39.4h10.9v39.4
		H528.4z"/>
	<path class="st1" d="M556.7,288.8h14.9v10.3h-25.8v-39.4h10.9V288.8z"/>
</g>
</svg>
